<svg xmlns="http://www.w3.org/2000/svg" width="61" height="61"><path data-name="Forma 1" d="M41.7 22.4a19.359 19.359 0 00-3.4.3 19.306 19.306 0 10-19 15.9 19.324 19.324 0 0018.37-13.34 16.919 16.919 0 115.22 33.31V33.95a1.19 1.19 0 00-2.38 0v24.62A16.93 16.93 0 0124.78 41.7a1.19 1.19 0 00-2.38 0 19.3 19.3 0 1019.3-19.3zm-10.44 8.86A16.913 16.913 0 016.53 8.21l20.28 20.28a1.181 1.181 0 00.84.35 1.2 1.2 0 00.84-2.04L8.21 6.52a16.917 16.917 0 0123.05 24.74zm11.28-2.91a1.164 1.164 0 00-.84-.35 1.2 1.2 0 00-1.19 1.19 1.164 1.164 0 00.35.84 1.188 1.188 0 00.84.35 1.2 1.2 0 001.19-1.19 1.188 1.188 0 00-.35-.84zM15.97 6.12a1.188 1.188 0 00-1.5-.76c-.01 0-.03.01-.04.01a1.2 1.2 0 00-.72 1.53 1.185 1.185 0 001.12.78 1.32 1.32 0 00.39-.06 1.194 1.194 0 00.75-1.5zm13.76 2.75a14.813 14.813 0 00-11.06-4.31 1.191 1.191 0 10.11 2.38 12.441 12.441 0 019.27 3.61 1.141 1.141 0 00.84.35 1.157 1.157 0 00.84-.35 1.177 1.177 0 000-1.68z" fill="#f64d01" fill-rule="evenodd"/></svg>