<svg xmlns="http://www.w3.org/2000/svg" width="60.97" height="60.97"><path data-name="Forma 1" d="M59.78 0H19.76a1.193 1.193 0 00-1.19 1.19v23.92a1.19 1.19 0 102.38 0v-3.62a23.352 23.352 0 0118.36.33 26.987 26.987 0 0010.67 2.23 25.293 25.293 0 004.2-.35 24.212 24.212 0 004.4-1.16v32.47a3.581 3.581 0 01-3.57 3.58H24.53a3.589 3.589 0 01-3.58-3.58v-18.2a1.19 1.19 0 10-2.38 0v18.2a5.962 5.962 0 005.96 5.96h30.48a5.962 5.962 0 005.96-5.96V1.19A1.193 1.193 0 0059.78 0zm-1.2 19.97a20.963 20.963 0 01-4.89 1.4 23.931 23.931 0 01-13.44-1.74 26.565 26.565 0 00-14.87-1.89 23.27 23.27 0 00-4.42 1.18V2.38h37.62v17.59zM20.61 30.72a1.23 1.23 0 00-.85-.35 1.19 1.19 0 000 2.38 1.23 1.23 0 00.85-.35 1.208 1.208 0 000-1.68zm33.45 1.78a1.193 1.193 0 00-1.19 1.19v9.93a1.19 1.19 0 102.38 0v-9.93a1.193 1.193 0 00-1.19-1.19zm.84 14.8a1.206 1.206 0 00-.84-.35 1.188 1.188 0 00-.84.35 1.164 1.164 0 00-.35.84 1.2 1.2 0 002.03.85 1.23 1.23 0 00.35-.85 1.206 1.206 0 00-.35-.84zM12.6 29.07a7.388 7.388 0 102.16 5.22 7.387 7.387 0 00-2.16-5.22zM7.38 39.29A5 5 0 013.1 31.7l6.87 6.87a4.952 4.952 0 01-2.59.72zm4.28-2.41l-6.87-6.87a5 5 0 016.87 6.87zm-1.49 9.32a7.385 7.385 0 107.39 7.39 7.39 7.39 0 00-7.39-7.39zM8.98 58.44a5 5 0 010-9.71v9.71zm2.39 0v-9.71a5 5 0 010 9.71z" fill="#fa590e" fill-rule="evenodd"/></svg>