<svg xmlns="http://www.w3.org/2000/svg" width="60" height="60"><path data-name="Forma 1" d="M54.14 5.16h-5.59V3.51a3.515 3.515 0 00-7.03 0v1.65H21.84V3.51a3.52 3.52 0 00-7.04 0V5.2a1.055 1.055 0 00-.31-.04H9.82a5.86 5.86 0 00-5.86 5.85v19.97a1.175 1.175 0 002.35 0V17.22h42.24a1.17 1.17 0 100-2.34H6.31v-3.87A3.515 3.515 0 019.82 7.5h4.67a1.059 1.059 0 00.31-.05v1.51a3.52 3.52 0 007.04 0V7.5h19.68v1.46a3.515 3.515 0 107.03 0V7.5h5.59a3.523 3.523 0 013.52 3.51v44.53a2.11 2.11 0 01-4.22 0v-3.03a1.18 1.18 0 00-1.18-1.17H38.63a1.17 1.17 0 000 2.34h12.46v1.86a4.489 4.489 0 00.53 2.11H4.45a2.108 2.108 0 01-2.11-2.1v-1.87h26.23a1.17 1.17 0 000-2.34H16.86a9.61 9.61 0 10-12.52 0H1.17A1.171 1.171 0 000 52.51v3.04A4.46 4.46 0 004.45 60h51.1A4.462 4.462 0 0060 55.54V11.01a5.86 5.86 0 00-5.86-5.85zm-34.65 3.8a1.17 1.17 0 11-2.34 0V3.51a1.17 1.17 0 012.34 0v5.45zm26.72 0a1.17 1.17 0 11-2.34 0V3.51a1.17 1.17 0 012.34 0v5.45zM3.34 44.06a7.265 7.265 0 117.26 7.27 7.266 7.266 0 01-7.26-7.27zm51.54-28.84a1.183 1.183 0 00-1.66 0 1.17 1.17 0 101.66 0zM35 51.68a1.183 1.183 0 00-1.66 0 1.17 1.17 0 101.66 0zm-8.49-16.06a4.455 4.455 0 104.46 4.46 4.462 4.462 0 00-4.46-4.46zm0 6.57a2.11 2.11 0 112.11-2.11 2.117 2.117 0 01-2.11 2.11zm10.94-6.57a4.455 4.455 0 104.45 4.46 4.456 4.456 0 00-4.45-4.46zm0 6.57a2.11 2.11 0 112.11-2.11 2.117 2.117 0 01-2.11 2.11zm10.94-6.57a4.455 4.455 0 104.45 4.46 4.464 4.464 0 00-4.45-4.46zm0 6.57a2.11 2.11 0 112.11-2.11 2.11 2.11 0 01-2.11 2.11zM15.58 23.44a4.45 4.45 0 104.45 4.45 4.456 4.456 0 00-4.45-4.45zm0 6.56a2.11 2.11 0 112.1-2.11 2.11 2.11 0 01-2.1 2.11zm21.87-6.56a4.45 4.45 0 104.45 4.45 4.447 4.447 0 00-4.45-4.45zm0 6.56a2.11 2.11 0 112.11-2.11A2.117 2.117 0 0137.45 30zm10.94-6.56a4.45 4.45 0 104.45 4.45 4.456 4.456 0 00-4.45-4.45zm0 6.56a2.11 2.11 0 112.11-2.11A2.11 2.11 0 0148.39 30zm-21.88-6.56a4.45 4.45 0 104.46 4.45 4.453 4.453 0 00-4.46-4.45zm0 6.56a2.11 2.11 0 112.11-2.11A2.117 2.117 0 0126.51 30zM14.78 41.21a1.171 1.171 0 00-1.66 0L9.3 45.02 8 43.72a1.174 1.174 0 00-1.66 1.66l2.14 2.13a1.15 1.15 0 00.82.34 1.173 1.173 0 00.83-.34l4.65-4.65a1.159 1.159 0 000-1.65z" fill="#fa4f01" fill-rule="evenodd"/></svg>