<svg xmlns="http://www.w3.org/2000/svg" width="22" height="24"><path data-name="Forma 1 copy 6" d="M.55 20.182H4.4v3.273a.537.537 0 00.15.392.567.567 0 00.4.154h2.87a.56.56 0 00.39-.154.507.507 0 00.16-.392v-3.273h8.68a.554.554 0 00.4-.154.535.535 0 00.15-.391v-2.182a.539.539 0 00-.15-.392.558.558 0 00-.4-.154H8.37V14.9h5.84a7.789 7.789 0 005.62-2.079 7.727 7.727 0 000-10.738 7.794 7.794 0 00-5.62-2.08H4.95a.561.561 0 00-.4.153.54.54 0 00-.15.392V11.27H.55a.533.533 0 00-.55.546v2.54a.536.536 0 00.15.391.557.557 0 00.4.153H4.4v2.012H.55a.558.558 0 00-.4.154.537.537 0 00-.15.392v2.182a.535.535 0 00.15.391.554.554 0 00.4.151zm7.82-16.55h5.5a4.117 4.117 0 012.94 1.056 3.963 3.963 0 010 5.522 4.114 4.114 0 01-2.94 1.057h-5.5V3.632z" fill="#fff" fill-rule="evenodd"/></svg>