<svg xmlns="http://www.w3.org/2000/svg" width="22" height="24"><path data-name="Forma 1" d="M.55 20.181H4.4v3.274a.531.531 0 00.15.391.563.563 0 00.4.155h2.87a.556.556 0 00.39-.155.5.5 0 00.16-.391v-3.274h8.68a.553.553 0 00.4-.153.539.539 0 00.15-.392v-2.182a.536.536 0 00-.15-.391.558.558 0 00-.4-.154H8.37V14.9h5.84a7.785 7.785 0 005.62-2.079 7.727 7.727 0 000-10.738 7.8 7.8 0 00-5.62-2.08H4.95a.561.561 0 00-.4.153.54.54 0 00-.15.392V11.27H.55a.533.533 0 00-.55.546v2.54a.535.535 0 00.15.391.557.557 0 00.4.153H4.4v2.012H.55a.558.558 0 00-.4.154.535.535 0 00-.15.391v2.182a.539.539 0 00.15.392.553.553 0 00.4.15zM8.37 3.632h5.5a4.117 4.117 0 012.94 1.056 3.963 3.963 0 010 5.522 4.118 4.118 0 01-2.94 1.057h-5.5V3.632z" fill-rule="evenodd"/></svg>